<?xml version="1.0" encoding="UTF-8"?>
<svg id="Layer_1" xmlns="http://www.w3.org/2000/svg" xmlns:xlink="http://www.w3.org/1999/xlink" version="1.1" viewBox="0 0 346.5 162">
  <!-- Generator: Adobe Illustrator 30.1.0, SVG Export Plug-In . SVG Version: 2.1.1 Build 136)  -->
  <defs>
    <style>
      .st0 {
        fill: url(#linear-gradient2);
      }

      .st1 {
        fill: url(#linear-gradient1);
      }

      .st2 {
        fill: url(#linear-gradient9);
      }

      .st3 {
        fill: url(#linear-gradient3);
      }

      .st4 {
        fill: url(#linear-gradient6);
      }

      .st5 {
        fill: url(#linear-gradient8);
      }

      .st6 {
        fill: url(#linear-gradient7);
      }

      .st7 {
        fill: url(#linear-gradient5);
      }

      .st8 {
        fill: url(#linear-gradient4);
      }

      .st9 {
        fill: url(#linear-gradient10);
      }

      .st10 {
        fill: url(#linear-gradient);
      }

      .st11, .st12 {
        isolation: isolate;
      }

      .st12 {
        font-family: ABCDiatypeUnlicensedTrial-Ultra, 'ABC Diatype Unlicensed Trial';
        font-size: 12px;
      }
    </style>
    <linearGradient id="linear-gradient" x1="60.5" y1="172.9" x2="60.5" y2="28.4" gradientTransform="translate(-17.8 180.4) rotate(2.8) scale(1 -1)" gradientUnits="userSpaceOnUse">
      <stop offset="0" stop-color="#d10a0a"/>
      <stop offset="1" stop-color="#ba1409"/>
    </linearGradient>
    <linearGradient id="linear-gradient1" x1="146.6" y1="145.1" x2="146.6" y2="68.4" gradientTransform="translate(-17.8 180.4) rotate(2.8) scale(1 -1)" gradientUnits="userSpaceOnUse">
      <stop offset="0" stop-color="#d10a0a"/>
      <stop offset="1" stop-color="#ba1409"/>
    </linearGradient>
    <linearGradient id="linear-gradient2" x1="110.8" y1="-437.9" x2="110.8" y2="-471.6" gradientTransform="translate(22.3 -406.9) rotate(-6.1) scale(1 -1)" gradientUnits="userSpaceOnUse">
      <stop offset="0" stop-color="#d10a0a"/>
      <stop offset="1" stop-color="#ba1409"/>
    </linearGradient>
    <linearGradient id="linear-gradient3" x1="220" y1="175.7" x2="220" y2="104.4" gradientTransform="translate(-17.8 180.4) rotate(2.8) scale(1 -1)" gradientUnits="userSpaceOnUse">
      <stop offset="0" stop-color="#d10a0a"/>
      <stop offset="1" stop-color="#ba1409"/>
    </linearGradient>
    <linearGradient id="linear-gradient4" x1="123.8" y1="133.7" x2="150.9" y2="133.7" gradientTransform="matrix(1,0,0,1,0,0)" xlink:href="#linear-gradient"/>
    <linearGradient id="linear-gradient5" x1="151.8" y1="133.7" x2="179.3" y2="133.7" gradientTransform="matrix(1,0,0,1,0,0)" xlink:href="#linear-gradient"/>
    <linearGradient id="linear-gradient6" x1="175.9" y1="133.7" x2="209.2" y2="133.7" gradientTransform="matrix(1,0,0,1,0,0)" xlink:href="#linear-gradient"/>
    <linearGradient id="linear-gradient7" x1="209" y1="133.7" x2="239" y2="133.7" gradientTransform="matrix(1,0,0,1,0,0)" xlink:href="#linear-gradient"/>
    <linearGradient id="linear-gradient8" x1="247.5" y1="133.7" x2="280.7" y2="133.7" gradientTransform="matrix(1,0,0,1,0,0)" xlink:href="#linear-gradient"/>
    <linearGradient id="linear-gradient9" x1="282.9" y1="133.7" x2="308.7" y2="133.7" gradientTransform="matrix(1,0,0,1,0,0)" xlink:href="#linear-gradient"/>
    <linearGradient id="linear-gradient10" x1="311.6" y1="133.7" x2="337.4" y2="133.7" gradientTransform="matrix(1,0,0,1,0,0)" xlink:href="#linear-gradient"/>
  </defs>
  <g>
    <path class="st10" d="M82.2,86.9c-.8,1-2.9,2.8-3.2-.2-2.2-27.6-12.8-54.4-28.4-70.6-6.6-6.4-11.1-6.7-18.1-5.5-14.5,2.4-23.9,28.2-21.5,50.6,2.5,22.4,16.3,45.6,30.6,44.2,12.4-1.4,15.5-14.4,14.2-25.4-.6-4-5.1-3.8-5.1-.2,0,9.1-2,11.8-6.8,12.2-10.4.7-18.9-19-20.6-35.2s4.2-36,12-36.8c12.3-1.3,24.9,27.8,28.3,58.1.5,5.1,1,11.3.9,16-16.1,12.5-30.7,30.7-28.5,51.2,1,8.6,6.9,10.5,12.2,9.6,15.4-2.7,28.7-24.1,29.8-57,2.7-2.3,5.7-5.3,6.9-7.7,2.1-4.4,0-6.3-2.6-3.2h-.2,0ZM50.5,146.4c-3.5-.2-5.1-4-4.9-9.7.5-11.3,8.8-22.8,19.2-31.7,0,24.4-4.2,41.7-14.2,41.4h-.1Z"/>
    <g>
      <path class="st1" d="M175.9,72.7c-3.5,12.4-10.1,20.2-16.5,21s-7.9-2.4-9.2-8.5c11.8-5,20.6-19.7,19.4-30.9-1.2-11.2-6.1-10.5-14.2-9.7-15.2,1.6-22.6,19.9-20.8,36.7s.8,4.8,1.5,6.9c-2,2.8-4.2,4.4-6.4,4.6.2-3.2.2-6.5-.2-9.6-1.6-15.1-10.2-22.8-17.5-22-7.3.7-5.8,1.6-7.7,3.3-1.8-.7-3.8-1-5.5-.6-11.2,2.4-10.2,24.9-9.5,30.9,1.7,15.7,11.5,24.2,20.8,23.1,9.3-1.1,15.2-11.2,17.4-21.4,4.3,0,8.2-2.5,11.1-6.1,4.4,7.9,12.1,12,19.1,11.3,11.8-1.3,19-12.1,20.9-25.3.7-5.4-1.5-7.5-2.9-4.2v.3l.2.2ZM113.6,109.4c-6.4.6-11-6.7-11.9-15.7-1-9,0-3.6-.2-5.3,3.1-.8,4.6-4.9,5.7-12.2.3-2.8,1.9-3.9,4.2-4.3,6.4-.6,10.8,4.1,11.7,13.7.9,9.6.3,3.3.2,4.8-.9-.7-2.1-1-3.2-.9-3.1.3-4.2,3.7-3.8,7.4s1.3,4.7,3.1,6c.7.5,1.5.8,2.4,1-1.9,3.3-4.7,4.9-8.3,5.3v.2h.1ZM154.6,52.5c2.9-3,5-1.8,5.8.7,2.6,7.4-1.9,23.7-11.7,27.9-2.6-10.8-.2-22.4,5.9-28.6Z"/>
      <path class="st0" d="M181.2,17.1c-8.1-1-10.9,4.6-11.4,8.9-.9,8.6,8,13.1,13.8,15.2,1.4.5,1.6,1.5.8,3.4-1.2,2.9-1.9,4.4-1,5.1,1.7,1,2.9-2.5,3.8-4.6,4.2-10,7.1-26.1-6.1-28h.2-.1Z"/>
      <path class="st3" d="M208,25.9c-3-2.5-2.6-6-1.8-7.8,1.4-3.6-3.4-4-4.8-.8-1.9,4.7-.8,12.3-2,22.2l-2.4,14.7c-1.2,0-2.3,0-3.9,0-7.6,1.3-8.5,10.1-5.9,18.7.8,2.7,1.8,4.7,3.2,6.6-2.4,2-5.2,4.2-4,5.8s4.4-1,7.7-3.3c4.2,3,9.7,3.9,15.3,2.6,15.2-3.3,22.1-16.7,21.1-27s-13.9-24.8-22.7-31.9v.2h.2ZM209.4,75.9c-5.8,1.7-10.6-1.1-13-6.7,1.4-.4,2.8-.8,4.6-1.5,6-2.5,7.2-7.4,4.9-12.6-1.1-2.5-3.2-4.2-5.5-5.1l2.2-13.3c11.3,6.7,20.6,34.5,6.8,39.3v-.2h0Z"/>
    </g>
  </g>
  <g class="st11">
    <text class="st12" transform="translate(-215.8 134.3)"><tspan x="0" y="0">STAG</tspan></text>
  </g>
  <g class="st11">
    <path class="st8" d="M123.8,138.1h9.6c.2,2.6,2,4,4.7,4s3.6-.8,3.6-2.3-.9-1.8-2.6-2l-5.1-.9c-5.1-.9-9.4-3.3-9.4-8.9s5.5-9.9,12.8-9.9,12.9,4.2,13.3,10.4h-9.6c-.2-1.8-1.4-3.2-4-3.2s-3.3.8-3.3,2.1,1.1,1.6,3.2,2l4.5.7c4.9.7,9.4,3.1,9.4,9.1s-4.2,10.4-13.1,10.4-13.8-4.1-14.1-11.4Z"/>
    <path class="st7" d="M161,126.5h-9.2v-7.7h27.5v7.7h-9.1v22.1h-9.2v-22.1Z"/>
    <path class="st4" d="M186.6,118.8h11.9l10.7,29.9h-9.8l-1.8-5.7h-10.2l-1.8,5.7h-9.7l10.7-29.9ZM195.3,135.7l-1.7-5.3c-.5-1.6-.9-2.9-1.1-3.9-.2,1-.6,2.3-1.1,4l-1.7,5.2h5.5Z"/>
    <path class="st6" d="M209,134.2c0-9.8,6.6-16.2,15.9-16.2s13.5,4.7,14,11h-9.5c-.4-2.1-2-3.5-4.5-3.5s-6.2,2.6-6.2,8.2,2.2,8.3,6.3,8.3,4.6-1.6,5-3.9h-5.8v-6.3h14.8v16.8h-8.3v-.5c0-1,0-1.7.2-2.8-1.4,2.5-4.6,4.1-8.5,4.1-7.8,0-13.3-5.7-13.3-15.3Z"/>
    <path class="st5" d="M258.2,118.8h11.9l10.7,29.9h-9.8l-1.8-5.7h-10.2l-1.8,5.7h-9.7l10.7-29.9ZM266.8,135.7l-1.7-5.3c-.5-1.6-.9-2.9-1.1-3.9-.2,1-.6,2.3-1.1,4l-1.7,5.2h5.5Z"/>
    <path class="st2" d="M282.9,118.8h14c6.4,0,11.9,2.6,11.9,9.9s-5.5,9.8-11.9,9.8h-4.7v10.2h-9.2v-29.9ZM299.4,128.7c0-1.4-.7-2.4-3.1-2.4h-4.2v4.8h4.2c2.2,0,3.1-.9,3.1-2.4Z"/>
    <path class="st9" d="M311.6,118.8h14c6.4,0,11.9,2.6,11.9,9.9s-5.5,9.8-11.9,9.8h-4.7v10.2h-9.2v-29.9ZM328.1,128.7c0-1.4-.7-2.4-3.1-2.4h-4.2v4.8h4.2c2.2,0,3.1-.9,3.1-2.4Z"/>
  </g>
</svg>